<?xml version="1.0" encoding="UTF-8" standalone="no"?>
<!-- Created with Inkscape (http://www.inkscape.org/) -->

<svg
   xmlns:dc="http://purl.org/dc/elements/1.1/"
   xmlns:cc="http://creativecommons.org/ns#"
   xmlns:rdf="http://www.w3.org/1999/02/22-rdf-syntax-ns#"
   xmlns:svg="http://www.w3.org/2000/svg"
   xmlns="http://www.w3.org/2000/svg"
   xmlns:sodipodi="http://sodipodi.sourceforge.net/DTD/sodipodi-0.dtd"
   xmlns:inkscape="http://www.inkscape.org/namespaces/inkscape"
   version="1.1"
   id="svg2694"
   xml:space="preserve"
   width="400"
   height="400"
   viewBox="0 0 800 800"
   sodipodi:docname="flower-ornament-12-freesvg.org.svg"
   inkscape:version="0.92.4 (5da689c313, 2019-01-14)"><metadata
     id="metadata2700"><rdf:RDF><cc:Work
         rdf:about=""><dc:format>image/svg+xml</dc:format><dc:type
           rdf:resource="http://purl.org/dc/dcmitype/StillImage" /><dc:title /></cc:Work></rdf:RDF></metadata><defs
     id="defs2698"><clipPath
       clipPathUnits="userSpaceOnUse"
       id="clipPath2710"><path
         d="M 0,600 H 600 V 0 H 0 Z"
         id="path2708"
         inkscape:connector-curvature="0" /></clipPath></defs><sodipodi:namedview
     pagecolor="#ffffff"
     bordercolor="#666666"
     borderopacity="1"
     objecttolerance="10"
     gridtolerance="10"
     guidetolerance="10"
     inkscape:pageopacity="0"
     inkscape:pageshadow="2"
     inkscape:window-width="1920"
     inkscape:window-height="1018"
     id="namedview2696"
     showgrid="false"
     inkscape:zoom="0.53977371"
     inkscape:cx="329.03915"
     inkscape:cy="499.81035"
     inkscape:window-x="-8"
     inkscape:window-y="-8"
     inkscape:window-maximized="1"
     inkscape:current-layer="g2702" /><g
     id="g2702"
     inkscape:groupmode="layer"
     inkscape:label="flower-12a-publicdomainvectors.org [Converted]"
     transform="matrix(1.3333333,0,0,-1.3333333,0,800)"><g
       id="g2704"><g
         id="g2706"
         clip-path="url(#clipPath2710)"><path
           d="m 354.563,357.172 c 8.523,72.625 37.347,114.229 74.672,143.769 -55.69,-20.988 -94.959,-77.732 -103.304,-177.298 97.032,23.828 146.93,71.494 158.941,129.783 -23.33,-41.488 -59.91,-76.47 -130.309,-96.254"
           style="fill:#231f20;fill-opacity:1;fill-rule:nonzero;stroke:none"
           id="path2712"
           inkscape:connector-curvature="0" /><path
           d="M 480.257,504.352 C 420.859,478.955 381.528,424.654 374.169,380.128 416.992,394.364 464.47,441.71 480.257,504.352"
           style="fill:#231f20;fill-opacity:1;fill-rule:nonzero;stroke:none"
           id="path2714"
           inkscape:connector-curvature="0" /><path
           d="m 382.966,306.978 c 53.213,50.156 102.033,63.497 149.614,62.134 -56.153,19.721 -122.707,1.492 -193.101,-69.414 89.647,-44.119 158.512,-39.678 205.18,-2.749 -44.541,-16.782 -95.049,-20.067 -161.693,10.029"
           style="fill:#231f20;fill-opacity:1;fill-rule:nonzero;stroke:none"
           id="path2716"
           inkscape:connector-curvature="0" /><path
           d="m 573.855,338.93 c -61.824,18.726 -126.858,2.41 -161.114,-26.969 41.954,-16.621 108.757,-10.87 161.114,26.969"
           style="fill:#231f20;fill-opacity:1;fill-rule:nonzero;stroke:none"
           id="path2718"
           inkscape:connector-curvature="0" /><path
           d="m 372.458,250.271 c 73.002,4.216 118.977,-16.946 154.55,-48.576 -30.337,51.202 -93.038,80.02 -192.543,70.951 40.317,-91.421 95.922,-132.287 155.413,-133.994 -44.907,15.776 -85.711,45.727 -117.42,111.619"
           style="fill:#231f20;fill-opacity:1;fill-rule:nonzero;stroke:none"
           id="path2720"
           inkscape:connector-curvature="0" /><path
           d="m 539.226,152.045 c -35.323,54.085 -95.629,83.39 -140.756,82.903 21.457,-39.701 76.327,-78.234 140.756,-82.903"
           style="fill:#231f20;fill-opacity:1;fill-rule:nonzero;stroke:none"
           id="path2722"
           inkscape:connector-curvature="0" /><path
           d="M 327.959,213.582 C 386.592,169.89 408.21,124.125 415.131,77.031 424.8,135.755 395.29,198.132 313.237,255.146 285.359,159.198 301.686,92.152 346.161,52.604 321.898,93.557 309.893,142.725 327.959,213.582"
           style="fill:#231f20;fill-opacity:1;fill-rule:nonzero;stroke:none"
           id="path2724"
           inkscape:connector-curvature="0" /><path
           d="m 392.574,31.142 c 7.704,64.137 -19.656,125.35 -54.538,153.986 -9.083,-44.206 8.181,-108.996 54.538,-153.986"
           style="fill:#231f20;fill-opacity:1;fill-rule:nonzero;stroke:none"
           id="path2726"
           inkscape:connector-curvature="0" /><path
           d="m 270.287,214.083 c 16.832,-71.16 3.975,-120.11 -20.998,-160.638 45.156,38.768 62.646,105.52 36.438,201.94 C 202.695,199.807 172.106,137.948 180.758,79.066 c 7.737,46.966 30.145,92.348 89.529,135.017"
           style="fill:#231f20;fill-opacity:1;fill-rule:nonzero;stroke:none"
           id="path2728"
           inkscape:connector-curvature="0" /><path
           d="m 202.513,32.791 c 47.131,44.18 65.518,108.659 57.205,153.015 C 224.341,157.781 195.923,97.053 202.513,32.791"
           style="fill:#231f20;fill-opacity:1;fill-rule:nonzero;stroke:none"
           id="path2730"
           inkscape:connector-curvature="0" /><path
           d="m 226.431,251.537 c -32.848,-65.33 -74.163,-94.565 -119.34,-109.559 59.512,0.673 115.816,40.565 157.716,131.274 -99.333,10.795 -162.526,-16.929 -193.748,-67.595 36.117,31.006 82.455,51.365 155.372,45.88"
           style="fill:#231f20;fill-opacity:1;fill-rule:nonzero;stroke:none"
           id="path2732"
           inkscape:connector-curvature="0" /><path
           d="m 57.981,156.225 c 64.501,3.547 120.032,41.12 142.177,80.446 -45.114,1.268 -105.919,-26.985 -142.177,-80.446"
           style="fill:#231f20;fill-opacity:1;fill-rule:nonzero;stroke:none"
           id="path2734"
           inkscape:connector-curvature="0" /><path
           d="M 216.908,308.419 C 149.753,279.486 99.312,283.647 55.067,301.201 c 46.022,-37.736 114.796,-43.368 205.197,-0.816 -69.153,72.119 -135.383,91.501 -191.867,72.759 47.595,0.536 96.18,-13.653 148.511,-64.725"
           style="fill:#231f20;fill-opacity:1;fill-rule:nonzero;stroke:none"
           id="path2736"
           inkscape:connector-curvature="0" /><path
           d="M 26.603,343.682 C 78.296,304.939 144.987,298.028 187.227,313.919 153.484,343.89 88.744,361.331 26.603,343.682"
           style="fill:#231f20;fill-opacity:1;fill-rule:nonzero;stroke:none"
           id="path2738"
           inkscape:connector-curvature="0" /><path
           d="m 246.18,358.112 c -70.043,21.005 -106.01,56.616 -128.619,98.504 10.996,-58.491 60.061,-107.014 156.666,-132.525 -6.617,99.698 -44.893,157.115 -100.212,179.067 36.806,-30.185 64.905,-72.283 72.165,-145.046"
           style="fill:#231f20;fill-opacity:1;fill-rule:nonzero;stroke:none"
           id="path2740"
           inkscape:connector-curvature="0" /><path
           d="m 123.062,507.452 c 14.695,-62.905 61.343,-111.068 103.913,-126.046 -6.583,44.648 -44.964,99.623 -103.913,126.046"
           style="fill:#231f20;fill-opacity:1;fill-rule:nonzero;stroke:none"
           id="path2742"
           inkscape:connector-curvature="0" /><path
           d="m 300.543,377.366 c -40.155,61.113 -44.815,111.511 -35.211,158.132 -29.173,-51.874 -22.778,-120.583 34.828,-202.222 59.015,80.625 66.601,149.214 38.335,201.586 8.793,-46.779 3.258,-97.09 -37.952,-157.496"
           style="fill:#231f20;fill-opacity:1;fill-rule:nonzero;stroke:none"
           id="path2744"
           inkscape:connector-curvature="0" /><path
           d="m 302.223,570.905 c -29.177,-57.634 -24.404,-124.512 -1.418,-163.351 23.654,38.433 29.59,105.22 1.418,163.351"
           style="fill:#231f20;fill-opacity:1;fill-rule:nonzero;stroke:none"
           id="path2746"
           inkscape:connector-curvature="0" /></g></g></g></svg>